0
SECTION
2
HEADER
9
$INSUNITS
70
4
9
$ACADVER
1
AC1014
9
$HANDSEED
5
FFFF
0
ENDSEC
0
SECTION
2
TABLES
0
TABLE
2
VPORT
5
8
100
AcDbSymbolTable
0
ENDTAB
0
TABLE
2
LTYPE
5
5
100
AcDbSymbolTable
0
LTYPE
5
14
100
AcDbSymbolTableRecord
100
AcDbLinetypeTableRecord
2
BYBLOCK
70
0
0
LTYPE
5
15
100
AcDbSymbolTableRecord
100
AcDbLinetypeTableRecord
2
BYLAYER
70
0
0
LTYPE
5
16
100
AcDbSymbolTableRecord
100
AcDbLinetypeTableRecord
2
DASHED
70
0
3
Dashed __ __ __ __ __ __ __ __ __ __ __ __ __ _
72
65
73
2
40
0.75
49
0.5
74
0
49
-0.25
74
0
0
ENDTAB
0
TABLE
2
LAYER
5
2
100
AcDbSymbolTable
70
2
0
LAYER
5
50
100
AcDbSymbolTableRecord
100
AcDbLayerTableRecord
2
0
70
0
62
7
6
CONTINUOUS
0
ENDTAB
0
TABLE
2
STYLE
5
3
100
AcDbSymbolTable
70
1
0
STYLE
5
11
100
AcDbSymbolTableRecord
100
AcDbTextStyleTableRecord
2
STANDARD
70
0
0
ENDTAB
0
TABLE
2
VIEW
5
6
100
AcDbSymbolTable
70
0
0
ENDTAB
0
TABLE
2
UCS
5
7
100
AcDbSymbolTable
70
0
0
ENDTAB
0
TABLE
2
APPID
5
9
100
AcDbSymbolTable
70
2
0
APPID
5
12
100
AcDbSymbolTableRecord
100
AcDbRegAppTableRecord
2
ACAD
70
0
0
ENDTAB
0
TABLE
2
DIMSTYLE
5
A
100
AcDbSymbolTable
70
1
0
ENDTAB
0
TABLE
2
BLOCK_RECORD
5
1
100
AcDbSymbolTable
70
1
0
BLOCK_RECORD
5
1F
100
AcDbSymbolTableRecord
100
AcDbBlockTableRecord
2
*MODEL_SPACE
0
BLOCK_RECORD
5
1B
100
AcDbSymbolTableRecord
100
AcDbBlockTableRecord
2
*PAPER_SPACE
0
ENDTAB
0
ENDSEC
0
SECTION
2
BLOCKS
0
BLOCK
5
20
100
AcDbEntity
100
AcDbBlockBegin
2
*MODEL_SPACE
0
ENDBLK
5
21
100
AcDbEntity
100
AcDbBlockEnd
0
BLOCK
5
1C
100
AcDbEntity
100
AcDbBlockBegin
2
*PAPER_SPACE
0
ENDBLK
5
1D
100
AcDbEntity
100
AcDbBlockEnd
0
ENDSEC
0
SECTION
2
ENTITIES
0
LWPOLYLINE
5
100
100
AcDbEntity
8
0
100
AcDbPolyline
90
4
70
1
43
0.0
10
-6.1886032165688585
20
-70.841440480737447
42
0.99999999999999989
10
-6.1886032165604252
20
-64.34144048079753
10
-9.6886032165753058
20
-64.341440480805801
42
0.99999999999999989
10
-9.688603216556535
20
-70.841440480729176
0
LWPOLYLINE
5
101
100
AcDbEntity
8
0
100
AcDbPolyline
90
4
70
1
43
0.0
10
-6.1886032165695273
20
-13.691440480765815
42
0.99999999999999989
10
-6.1886032165623126
20
-7.191440480769165
10
-9.6886032165807769
20
-7.1914404807833261
42
0.99999999999999989
10
-9.6886032165544744
20
-13.691440480751655
0
LWPOLYLINE
5
102
100
AcDbEntity
8
0
100
AcDbPolyline
90
4
70
1
43
0.0
10
-414.70000000000016
20
-78
10
-271.70000000000005
20
-78
10
-271.70000000000005
20
-110
10
-414.69999999999999
20
-110
0
LWPOLYLINE
5
103
100
AcDbEntity
8
0
100
AcDbPolyline
90
4
70
1
43
0.0
10
-473.71139678346145
20
-127.99144048079556
10
-477.21139678342331
20
-127.99144048076468
42
-0.99999999999999989
10
-477.21139678344747
20
-121.49144048077031
10
-473.71139678340421
20
-121.49144048073941
42
-0.99999999999999989
0
LWPOLYLINE
5
104
100
AcDbEntity
8
0
100
AcDbPolyline
90
4
70
1
43
0.0
10
-473.71139678343059
20
-13.69144048076377
10
-477.21139678344559
20
-13.691440480765886
42
-0.99999999999999989
10
-477.21139678341927
20
-7.191440480769165
10
-473.71139678343422
20
-7.191440480771174
42
-0.99999999999999989
0
LWPOLYLINE
5
105
100
AcDbEntity
8
0
100
AcDbPolyline
90
4
70
1
43
0.0
10
-211.70000000000002
20
-78
10
-68.700000000000017
20
-78
10
-68.700000000000003
20
-110
10
-211.70000000000002
20
-110
0
LWPOLYLINE
5
106
100
AcDbEntity
8
0
100
AcDbPolyline
90
4
70
1
43
0.0
10
-414.70000000000016
20
-19.999999999999993
10
-271.70000000000005
20
-19.999999999999993
10
-271.70000000000005
20
-51.999999999999993
10
-414.70000000000016
20
-51.999999999999993
0
LWPOLYLINE
5
107
100
AcDbEntity
8
0
100
AcDbPolyline
90
4
70
1
43
0.0
10
-473.71139678342951
20
-70.841440480734278
10
-477.21139678346344
20
-70.841440480737447
42
-0.99999999999999989
10
-477.21139678340478
20
-64.34144048079753
10
-473.7113967834353
20
-64.341440480800657
42
-0.99999999999999989
0
LWPOLYLINE
5
108
100
AcDbEntity
8
0
100
AcDbPolyline
90
4
70
1
43
0.0
10
-211.69999999999993
20
-20
10
-68.699999999999932
20
-20.000000000000036
10
-68.699999999999989
20
-52.000000000000043
10
-211.69999999999993
20
-52.000000000000014
0
LWPOLYLINE
5
109
100
AcDbEntity
8
0
100
AcDbPolyline
90
4
70
1
43
0.0
10
-6.188603216537242
20
-127.99144048076468
42
0.99999999999999989
10
-6.1886032165918961
20
-121.49144048077031
10
-9.6886032164581479
20
-121.49144048065287
42
0.99999999999999989
10
-9.6886032166711846
20
-127.9914404808821
0
LWPOLYLINE
5
110
100
AcDbEntity
8
0
100
AcDbPolyline
90
4
70
1
43
0.0
10
0
20
-135
10
0
20
0
10
-483.40000000000003
20
0
10
-483.40000000000003
20
-135
0
ENDSEC
0
SECTION
2
OBJECTS
0
DICTIONARY
5
C
100
AcDbDictionary
3
ACAD_GROUP
350
D
3
ACAD_MLINESTYLE
350
17
0
DICTIONARY
5
D
100
AcDbDictionary
0
DICTIONARY
5
1A
330
C
100
AcDbDictionary
0
DICTIONARY
5
17
100
AcDbDictionary
0
ENDSEC
0
EOF
