<svg xmlns="http://www.w3.org/2000/svg" xml:space="preserve" id="Ebene_1" x="0" y="0" style="background-color:#fff" version="1.1" viewBox="0 0 120 120"><style>.st3{font-family:Helvetica,Arial,sans-serif}.st4{font-size:24.3px}</style><path d="M5.8 60.4c0 30.2 24.4 54.6 54.6 54.6S115 90.6 115 60.4 90.6 5.8 60.4 5.8 5.8 30.2 5.8 60.4" style="fill:none;stroke:#000;stroke-width:.6;stroke-linecap:round;stroke-linejoin:round"/><path d="M46.3 60.4c0 7.8 6.3 14.1 14.1 14.1s14.1-6.3 14.1-14.1-6.3-14.1-14.1-14.1-14.1 6.3-14.1 14.1m0-36.7c0 7.8 6.3 14.1 14.1 14.1s14.1-6.3 14.1-14.1S68.2 9.6 60.4 9.6s-14.1 6.3-14.1 14.1M72 113.6c0-6.4-5.2-11.6-11.6-11.6s-11.6 5.2-11.6 11.6m-29.5-29c0 7.8 6.3 14.1 14.1 14.1s14.1-6.3 14.1-14.1-6.3-14.1-14.1-14.1-14.1 6.3-14.1 14.1m53.2 0c0 7.8 6.3 14.1 14.1 14.1s14.1-6.3 14.1-14.1-6.3-14.1-14.1-14.1-14.1 6.3-14.1 14.1M13.5 46c0 7.8 6.3 14.1 14.1 14.1S41.7 53.8 41.7 46s-6.3-14.1-14.1-14.1S13.5 38.2 13.5 46m64.8 0c0 7.8 6.3 14.1 14.1 14.1s14.1-6.3 14.1-14.1-6.3-14.1-14.1-14.1S78.3 38.2 78.3 46" style="fill:none;stroke:#000;stroke-width:.3;stroke-linecap:round;stroke-linejoin:round"/><text class="st3 st4" transform="translate(52.8 69.4)">6</text><text class="st3 st4" transform="translate(52.7 31)">4</text><text class="st3 st4" transform="translate(20.6 54.8)">3</text><text class="st3 st4" transform="translate(85.9 54.5)">5</text><text class="st3 st4" transform="translate(26.7 92.8)">2</text><text class="st3 st4" transform="translate(80 93)">1</text></svg>