<svg version="1.1" id="Ebene_1" xmlns="http://www.w3.org/2000/svg" x="0" y="0" viewBox="0 0 127.8 120.4" style="enable-background:new 0 0 127.8 120.4;background-color:#fff" xml:space="preserve"><style>.st3{fill:none;stroke:#1d1d1b;stroke-width:.283;stroke-miterlimit:3.864}.st5{font-family:Helvetica,Arial,sans-serif}.st6{font-size:14px}</style><path d="M64.6 48.6v2.9h-5.9v-2.9m0 35.2v-3.1h5.9v3.1" style="fill:none;stroke:#000;stroke-width:.283;stroke-linecap:round;stroke-linejoin:round;stroke-miterlimit:10"/><path d="m88.6 66.1-.2-3.4-.7-3.6c-8-27.7-46.7-26.5-52.8 1.8l-.5 3.4v3.6c3.2 30.9 44.6 34.5 53.3 5.2l.7-3.6.2-3.4z" style="fill:none;stroke:#000;stroke-width:.283;stroke-linecap:round;stroke-linejoin:bevel;stroke-miterlimit:10"/><path class="st3" d="M60.3 57.2c0-.7.6-1.3 1.3-1.3.7 0 1.3.6 1.3 1.3s-.6 1.3-1.3 1.3c-.7 0-1.3-.6-1.3-1.3zm-7.7 4.5c0-.7.6-1.3 1.3-1.3s1.3.6 1.3 1.3-.6 1.3-1.3 1.3c-.7-.1-1.3-.6-1.3-1.3zm15.4 0c0-.7.6-1.3 1.3-1.3.7 0 1.3.6 1.3 1.3S70 63 69.3 63c-.8-.1-1.3-.6-1.3-1.3zm0 8.9c0-.7.6-1.3 1.3-1.3.7 0 1.3.6 1.3 1.3 0 .7-.6 1.3-1.3 1.3-.8 0-1.3-.6-1.3-1.3zM60.3 75c0-.7.6-1.3 1.3-1.3.7 0 1.3.6 1.3 1.3 0 .7-.6 1.3-1.3 1.3-.7 0-1.3-.6-1.3-1.3zm-7.7-4.4c0-.7.6-1.3 1.3-1.3s1.3.6 1.3 1.3c0 .7-.6 1.3-1.3 1.3-.7-.1-1.3-.6-1.3-1.3z"/><path class="st3" d="M39.8 66.1c0-12 9.7-21.7 21.7-21.7s21.7 9.7 21.7 21.7-9.7 21.7-21.7 21.7-21.7-9.6-21.7-21.7z"/><path class="st3" d="M68.7 49.9s-2.7-1.5-7-1.5c-4.4 0-7 1.5-7 1.5L53 47.3s-1.5.6-2.9 1.6-2.8 2.3-2.8 2.3l1.8 2.6s-1.3 1.4-2.3 2.9-1.7 3.4-1.7 3.4h-3.3s-1 2.8-.9 6.4c0 3.6 1 6 1 6h3.2s2.5 7.9 11 10.7c8.5 2.8 15.2-1.8 15.2-1.8l2 2.2s1.4-.9 2.7-2.2c1.3-1.2 2.3-2.6 2.3-2.6l-2.1-2.2.8-1.2c.4-.6.7-1.3.7-1.3l2.9.9s.7-1.8 1.2-3.3c.4-1.5.6-3.5.6-3.5l-2.9-.6s.4-3.9-1.1-7.4c-2-4.9-4-6.3-4-6.3l1.7-2.6s-1.6-1.4-2.8-2.2c-1.2-.8-3-1.7-3-1.7l-1.6 2.5z"/><path d="M69.2 61.7 111 24.6m-41.8 46L117 85.3M61.6 75l-27.7 29.2m20-42.5L17.5 28.1m36.4 42.5L10.9 84m50.7-26.8 3-41.7" style="fill:none;stroke:#000;stroke-miterlimit:10"/><text transform="translate(8.767 27.255)" class="st5 st6">1</text><text transform="translate(60.73 12.014)" class="st5 st6">2</text><text transform="translate(112.904 23.87)" class="st5 st6">3</text><text transform="translate(118.171 92.086)" class="st5 st6">4</text><text transform="translate(24.558 115.843)" class="st5 st6">5</text><text transform="translate(.416 90.429)" class="st5 st6">6</text></svg>