<svg xmlns="http://www.w3.org/2000/svg" xml:space="preserve" id="Ebene_1" x="0" y="0" style="background-color:#fff" version="1.1" viewBox="0 0 158.5 151.8"><style>.st1{fill:none;stroke:#1a1a18;stroke-width:.283;stroke-linecap:round;stroke-linejoin:round}.st3{font-family:Helvetica,Arial,sans-serif}.st4{font-size:14.889px}</style><path d="M102.4 87.6c0 11.8-9.6 21.4-21.4 21.4s-21.4-9.6-21.4-21.4S69.2 66.2 81 66.2s21.4 9.6 21.4 21.4" class="st1"/><path d="M98.9 87.6c0 9.9-8 17.9-17.9 17.9s-17.9-8-17.9-17.9 8-17.9 17.9-17.9c9.9.1 17.9 8 17.9 17.9" class="st1"/><path d="M106.7 87.6c0 14.2-11.5 25.7-25.7 25.7s-25.7-11.5-25.7-25.7S66.8 61.9 81 61.9s25.7 11.5 25.7 25.7" class="st1"/><path d="M77.9 87.6c0-1.9 1.5-3.4 3.4-3.4s3.4 1.5 3.4 3.4-1.5 3.4-3.4 3.4c-1.9.1-3.4-1.5-3.4-3.4m-10 0c0-1.9 1.5-3.4 3.5-3.4 1.9 0 3.4 1.5 3.4 3.4S73.3 91 71.4 91c-2 .1-3.5-1.5-3.5-3.4m16.8-7.4c0-1.9 1.5-3.4 3.4-3.4s3.4 1.5 3.4 3.4-1.5 3.4-3.4 3.4c-1.8.1-3.4-1.5-3.4-3.4m-10.5-1.5c0-1.9 1.5-3.4 3.4-3.4s3.4 1.5 3.4 3.4-1.5 3.4-3.4 3.4-3.4-1.5-3.4-3.4M84.7 95c0 1.9 1.5 3.4 3.4 3.4s3.4-1.5 3.4-3.4-1.5-3.4-3.4-3.4c-1.8-.1-3.4 1.5-3.4 3.4m-2.2 3.7c0 .8.7 1.5 1.5 1.5s1.5-.7 1.5-1.5-.7-1.5-1.5-1.5c-.9 0-1.5.7-1.5 1.5m-12.1-4.9c0 .8.7 1.5 1.5 1.5s1.5-.7 1.5-1.5-.7-1.5-1.5-1.5-1.5.7-1.5 1.5m12.1-17.3c0-.8.7-1.5 1.5-1.5s1.5.7 1.5 1.5S84.8 78 84 78c-.9 0-1.5-.6-1.5-1.5m-12.1 5c0-.8.7-1.5 1.5-1.5s1.5.7 1.5 1.5-.7 1.5-1.5 1.5c-.8-.1-1.5-.7-1.5-1.5m3.8 15.1c0 1.9 1.5 3.4 3.4 3.4s3.4-1.5 3.4-3.4-1.5-3.4-3.4-3.4c-1.9-.1-3.4 1.5-3.4 3.4m20.1-12.2v-.7h-1.2l-3.6 2.6h-1.8c-.5 0-.8-.1-.8.4v1.9c0 .5.3.4.8.4h1.8l3.6 2.6h1.2v-.8h0l-.1-.1c-1-.7-1.7-1.8-1.7-3.1-.1-1.4.7-2.5 1.8-3.2 0 0 0 0 0 0" class="st1"/><path d="M95.8 90.7c-1.4 6.7-7.3 11.7-14.4 11.7-8.1 0-14.7-6.6-14.7-14.7S73.3 73 81.4 73c7.1 0 13 5 14.4 11.7-1.5.2-2.7 1.5-2.7 3s1.1 2.8 2.7 3" class="st1"/><path d="m87.4 80.6 44.5-39.4M87.4 94.6l50.8 15.6M77.8 96.3l-29.4 31M81 87.6 32.4 43.4M71.1 87l-45.7 14.3m52.4-22.4L81 34.5" style="fill:none;stroke:#000;stroke-miterlimit:10"/><text class="st3 st4" transform="translate(14.307 107.342)">4</text><text class="st3 st4" transform="translate(36.111 138.013)">3</text><text class="st3 st4" transform="translate(141.666 116.626)">2</text><text class="st3 st4" transform="translate(136.17 41.381)">1</text><text class="st3 st4" transform="translate(77.064 29.33)">5</text><text class="st3 st4" transform="translate(21.196 42.001)">6</text></svg>