<svg version="1.1" id="Ebene_1" xmlns="http://www.w3.org/2000/svg" x="0" y="0" viewBox="0 0 96.1 91.6" style="enable-background:new 0 0 96.1 91.6;background-color:#fff" xml:space="preserve"><style>.st0{fill:none;stroke:#000;stroke-width:.283;stroke-linecap:round;stroke-linejoin:round;stroke-miterlimit:10}.st2{font-family:Helvetica,Arial,sans-serif}.st3{font-size:9px}</style><path class="st0" d="m52.7 63.3 1.6-.9 1.8-.9 1.6-1.1 1.4-1.2-1.1-1.6 1.4-1.4 1.1-1.4 1.6.9 1.1-1.9.9-2 .7-2 .5-2.1-1.9-.7.2-1.6c.4-4.2-1-8.1-2.9-11.7l-1-1.1 1.4-1.1-1.1-1.4-1.1-1.1-1.4-1.2-1.4-.9-1.1 1.6-2.3-1.4c-5.3-2.2-11.7-2.3-16.7.7l-1.1.7-1.1-1.6-1.6 1.1-1.3 1.1-1.4 1.4-1.1 1.6 1.3 1.4-.9 1.4-.7 1.6-.7 1.8-.4 1.6h-2.1l-.2 1.1c-.6 2.6-.1 5.4.2 8l.5 1.4h2.3l1.1 2.8.7 1.1c.8 1.9 4.2 5.4 6.2 6l1.1.7 1.4.7 1.4.4 1.4.2 1.3.5h4.9l1.8-.2 1.6-.5 1.6-.4.5 1.6M22.5 44.7l-.5.5-.2.5v1.6l.4.4.3.5.4.2"/><path style="fill:none;stroke:#000;stroke-width:.458;stroke-linecap:round;stroke-linejoin:round;stroke-miterlimit:10" d="M22.5 44.7v-1.1"/><path class="st0" d="m22.9 39.7-.4.4-.3.5-.4.4v1.7l.2.4.5.5"/><path class="st0" d="m38.5 22.7 2.3-.7 2-.2h4.6c3.5.7 7.2 1.5 10.1 3.7l.7.7.9.7c3.3 2.4 4.7 5.3 6.7 8.7l.2 1 .5 1.1.5 2.3c2.3 10.1-3.7 21.3-13.3 25l-1.1.5-1.1.2-2 .7-2.3.2c-9.9.8-19-4.6-22.7-13.8l-.5-.9-.5-1.1c-2.7-10.4 1.5-21.4 11-26.4l2-.9.9-.5 1.1-.3"/><path class="st0" d="M44.7 28.7h1.6l1.6.2 1.4.4c5.8 1.5 10.6 7 11 13.1l.2 1.6v1.6l-.2 1.4c-.4 2-1.8 5.4-3.2 6.8l-1 1.2-2.3 1.8-1.4 1-1.4.4-.7.5-.7.2-1.3.4-1.6.2h-3.2l-1.4-.2c-6-1.1-11.1-6-12.4-11.9l-.2-1.6v-3l.5-3.2.7-1.4.4-1.4.9-1.1 1-1.4.9-1.1c2.4-2.1 2.9-2.2 5.5-3.7l.7-.2 1.6-.4 1.4-.2h1.6"/><path class="st0" d="M53.7 45.4c.5 0 1-.4 1-.9s-.4-1-1-1c-.5 0-.9.4-.9 1 0 .5.4.9.9.9zm-2 5.5c.5 0 1-.4 1-.9s-.4-1-1-1c-.5 0-.9.4-.9 1 0 .5.4.9.9.9zm-5.2 2.6c.5 0 1-.4 1-.9s-.4-1-1-1c-.5 0-.9.4-.9 1 0 .5.4.9.9.9zm-.2-16.6c.5 0 1-.4 1-.9s-.4-1-1-1c-.5 0-.9.4-.9 1 0 .5.5.9.9.9zm5.4 2.7c.5 0 1-.4 1-.9s-.4-1-1-1c-.5 0-.9.4-.9 1 0 .4.4.9.9.9zM41.2 52.2c.5 0 1-.4 1-.9s-.4-1-1-1c-.5 0-.9.4-.9 1 0 .5.4.9.9.9zm-3.4-3.9c.5 0 1-.4 1-.9s-.4-1-1-1c-.5 0-.9.4-.9 1 0 .4.4.9.9.9zm0-5.9c.5 0 1-.4 1-.9s-.4-1-1-1c-.5 0-.9.4-.9 1 0 .5.4.9.9.9zm3.5-4.2c.5 0 1-.4 1-.9s-.4-1-1-1c-.5 0-.9.4-.9 1 0 .5.5.9.9.9zm5.2 9.6c.5 0 1-.4 1-.9s-.4-1-1-1c-.5 0-.9.4-.9 1 0 .4.4.9.9.9zm0-5.1c.5 0 1-.4 1-.9s-.4-1-1-1c-.5 0-.9.4-.9 1 0 .5.4.9.9.9zm-3.6 2.7c.5 0 1-.4 1-.9s-.4-1-1-1c-.5 0-.9.4-.9 1 0 .5.4.9.9.9z"/><text transform="translate(57.388 7.724)" class="st2 st3">7</text><text transform="translate(79.433 17.312)" class="st2 st3">6</text><text transform="translate(75.879 37.712)" class="st2 st3">12</text><text transform="translate(91.133 47.812)" class="st2 st3">5</text><text transform="translate(76.567 56.912)" class="st2 st3">11</text><text transform="translate(48.353 88.681)" class="st2 st3">3</text><text transform="translate(18.026 85.706)" class="st2 st3">2</text><text transform="translate(0 70.541)" class="st2 st3">1</text><text transform="translate(0 49.962)" class="st2 st3">10</text><text transform="translate(0 27.612)" class="st2 st3">9</text><text transform="translate(25.043 7.724)" class="st2 st3">8</text><text transform="translate(75.879 79.295)" class="st2 st3">4</text><path d="m37.1 41.1-31-13.8M37 47.8 5.9 66m46.5-15.5 22.7 22.9M46.5 53.5l3.7 26.7m-9.8-28.4-17.5 26m29.4-39.9 25.4-20.6m-23 27.2 34.4-.3m-42.4-9.1L57.9 9.7M41.3 36.4 29.5 9.9M42 44.5l-29.7 2.4m35.2-5.3 27.6-5.9M47.5 46.9l27.6 6.6" style="fill:none;stroke:#000;stroke-width:.5;stroke-miterlimit:10"/></svg>